<svg width="800" height="400" xmlns="http://www.w3.org/2000/svg">
  <defs>
    <linearGradient id="brics-grad" x1="0%" y1="0%" x2="100%" y2="100%">
      <stop offset="0%" style="stop-color:#ff6b6b;stop-opacity:1" />
      <stop offset="50%" style="stop-color:#4ecdc4;stop-opacity:1" />
      <stop offset="100%" style="stop-color:#45b7d1;stop-opacity:1" />
    </linearGradient>
  </defs>
  <rect width="800" height="400" fill="url(#brics-grad)"/>
  
  <!-- BRICS flags representation -->
  <rect x="50" y="80" width="40" height="25" fill="#009639" rx="2"/>
  <circle cx="70" cy="92" r="8" fill="#FFDF00"/>
  <text x="70" y="96" text-anchor="middle" fill="#009639" font-family="Arial" font-size="8" font-weight="bold">BR</text>
  
  <rect x="100" y="80" width="40" height="25" fill="#CE1126" rx="2"/>
  <text x="120" y="96" text-anchor="middle" fill="white" font-family="Arial" font-size="8" font-weight="bold">RU</text>
  
  <rect x="150" y="80" width="40" height="25" fill="#FF9933" rx="2"/>
  <text x="170" y="96" text-anchor="middle" fill="white" font-family="Arial" font-size="8" font-weight="bold">IN</text>
  
  <rect x="200" y="80" width="40" height="25" fill="#FFDE00" rx="2"/>
  <text x="220" y="96" text-anchor="middle" fill="#DE2910" font-family="Arial" font-size="8" font-weight="bold">CN</text>
  
  <rect x="250" y="80" width="40" height="25" fill="#007A4D" rx="2"/>
  <text x="270" y="96" text-anchor="middle" fill="white" font-family="Arial" font-size="8" font-weight="bold">SA</text>
  
  <!-- Conference table -->
  <ellipse cx="400" cy="220" rx="200" ry="80" fill="rgba(255,255,255,0.1)"/>
  <ellipse cx="400" cy="215" rx="190" ry="75" fill="rgba(255,255,255,0.05)"/>
  
  <!-- Delegates around table -->
  <circle cx="300" cy="180" r="12" fill="rgba(255,255,255,0.3)"/>
  <circle cx="500" cy="180" r="12" fill="rgba(255,255,255,0.3)"/>
  <circle cx="350" cy="250" r="12" fill="rgba(255,255,255,0.3)"/>
  <circle cx="450" cy="250" r="12" fill="rgba(255,255,255,0.3)"/>
  <circle cx="400" cy="160" r="12" fill="rgba(255,255,255,0.4)"/>
  
  <!-- Brazil flag highlight (presidency) -->
  <rect x="385" y="140" width="30" height="18" fill="#009639" rx="2"/>
  <circle cx="400" cy="149" r="6" fill="#FFDF00"/>
  
  <!-- Health/medical symbols -->
  <circle cx="600" cy="150" r="25" fill="rgba(255,255,255,0.2)"/>
  <rect x="592" y="142" width="16" height="4" fill="white"/>
  <rect x="598" y="136" width="4" height="16" fill="white"/>
  
  <circle cx="150" cy="250" r="20" fill="rgba(255,255,255,0.2)"/>
  <text x="150" y="255" text-anchor="middle" fill="white" font-family="Arial" font-size="12">💊</text>
  
  <!-- AI network connections -->
  <line x1="300" y1="180" x2="400" y2="160" stroke="rgba(255,255,255,0.4)" stroke-width="2"/>
  <line x1="400" y1="160" x2="500" y2="180" stroke="rgba(255,255,255,0.4)" stroke-width="2"/>
  <line x1="350" y1="250" x2="450" y2="250" stroke="rgba(255,255,255,0.4)" stroke-width="2"/>
  <line x1="300" y1="180" x2="350" y2="250" stroke="rgba(255,255,255,0.4)" stroke-width="2"/>
  <line x1="500" y1="180" x2="450" y2="250" stroke="rgba(255,255,255,0.4)" stroke-width="2"/>
  
  <!-- Data flow visualization -->
  <circle cx="650" cy="250" r="15" fill="rgba(0,255,255,0.3)"/>
  <circle cx="680" cy="220" r="10" fill="rgba(0,255,255,0.3)"/>
  <circle cx="700" cy="280" r="12" fill="rgba(0,255,255,0.3)"/>
  
  <!-- Text */
  <text x="400" y="50" text-anchor="middle" fill="white" font-family="Arial" font-size="28" font-weight="bold">BRICS Saúde 2025</text>
  <text x="400" y="350" text-anchor="middle" fill="white" font-family="Arial" font-size="16">Brasil Lidera Agenda de IA na Saúde</text>
  <text x="400" y="375" text-anchor="middle" fill="white" font-family="Arial" font-size="12">Cooperação Internacional em Saúde Digital</text>
</svg>