<svg width="800" height="400" xmlns="http://www.w3.org/2000/svg">
  <defs>
    <linearGradient id="camara-grad" x1="0%" y1="0%" x2="100%" y2="100%">
      <stop offset="0%" style="stop-color:#1e3a8a;stop-opacity:1" />
      <stop offset="100%" style="stop-color:#3b82f6;stop-opacity:1" />
    </linearGradient>
  </defs>
  <rect width="800" height="400" fill="url(#camara-grad)"/>
  
  <!-- Congress building outline -->
  <rect x="200" y="120" width="400" height="180" fill="rgba(255,255,255,0.1)" rx="10"/>
  <rect x="180" y="100" width="440" height="20" fill="rgba(255,255,255,0.15)" rx="5"/>
  
  <!-- Columns -->
  <rect x="220" y="120" width="15" height="180" fill="rgba(255,255,255,0.2)"/>
  <rect x="250" y="120" width="15" height="180" fill="rgba(255,255,255,0.2)"/>
  <rect x="280" y="120" width="15" height="180" fill="rgba(255,255,255,0.2)"/>
  <rect x="320" y="120" width="15" height="180" fill="rgba(255,255,255,0.2)"/>
  <rect x="460" y="120" width="15" height="180" fill="rgba(255,255,255,0.2)"/>
  <rect x="490" y="120" width="15" height="180" fill="rgba(255,255,255,0.2)"/>
  <rect x="520" y="120" width="15" height="180" fill="rgba(255,255,255,0.2)"/>
  <rect x="550" y="120" width="15" height="180" fill="rgba(255,255,255,0.2)"/>
  
  <!-- Dome -->
  <ellipse cx="400" cy="120" rx="80" ry="30" fill="rgba(255,255,255,0.15)"/>
  <ellipse cx="400" cy="115" rx="70" ry="25" fill="rgba(255,255,255,0.1)"/>
  
  <!-- Brazilian flag -->
  <rect x="50" y="50" width="80" height="50" fill="#009639" rx="5"/>
  <ellipse cx="90" cy="75" rx="25" ry="18" fill="#FFDF00"/>
  <rect x="75" y="70" width="30" height="3" fill="#002776"/>
  <text x="90" y="85" text-anchor="middle" fill="white" font-family="Arial" font-size="6">ORDEM E PROGRESSO</text>
  
  <!-- Legislative chamber interior -->
  <ellipse cx="400" cy="200" rx="120" ry="60" fill="rgba(255,255,255,0.05)"/>
  
  <!-- Seats arrangement -->
  <rect x="320" y="180" width="8" height="6" fill="rgba(255,255,255,0.3)" rx="1"/>
  <rect x="340" y="180" width="8" height="6" fill="rgba(255,255,255,0.3)" rx="1"/>
  <rect x="360" y="180" width="8" height="6" fill="rgba(255,255,255,0.3)" rx="1"/>
  <rect x="380" y="180" width="8" height="6" fill="rgba(255,255,255,0.3)" rx="1"/>
  <rect x="400" y="180" width="8" height="6" fill="rgba(255,255,255,0.3)" rx="1"/>
  <rect x="420" y="180" width="8" height="6" fill="rgba(255,255,255,0.3)" rx="1"/>
  <rect x="440" y="180" width="8" height="6" fill="rgba(255,255,255,0.3)" rx="1"/>
  <rect x="460" y="180" width="8" height="6" fill="rgba(255,255,255,0.3)" rx="1"/>
  <rect x="480" y="180" width="8" height="6" fill="rgba(255,255,255,0.3)" rx="1"/>
  
  <!-- Second row -->
  <rect x="330" y="200" width="8" height="6" fill="rgba(255,255,255,0.3)" rx="1"/>
  <rect x="350" y="200" width="8" height="6" fill="rgba(255,255,255,0.3)" rx="1"/>
  <rect x="370" y="200" width="8" height="6" fill="rgba(255,255,255,0.3)" rx="1"/>
  <rect x="390" y="200" width="8" height="6" fill="rgba(255,255,255,0.3)" rx="1"/>
  <rect x="410" y="200" width="8" height="6" fill="rgba(255,255,255,0.3)" rx="1"/>
  <rect x="430" y="200" width="8" height="6" fill="rgba(255,255,255,0.3)" rx="1"/>
  <rect x="450" y="200" width="8" height="6" fill="rgba(255,255,255,0.3)" rx="1"/>
  <rect x="470" y="200" width="8" height="6" fill="rgba(255,255,255,0.3)" rx="1"/>
  
  <!-- Third row -->
  <rect x="340" y="220" width="8" height="6" fill="rgba(255,255,255,0.3)" rx="1"/>
  <rect x="360" y="220" width="8" height="6" fill="rgba(255,255,255,0.3)" rx="1"/>
  <rect x="380" y="220" width="8" height="6" fill="rgba(255,255,255,0.3)" rx="1"/>
  <rect x="400" y="220" width="8" height="6" fill="rgba(255,255,255,0.3)" rx="1"/>
  <rect x="420" y="220" width="8" height="6" fill="rgba(255,255,255,0.3)" rx="1"/>
  <rect x="440" y="220" width="8" height="6" fill="rgba(255,255,255,0.3)" rx="1"/>
  <rect x="460" y="220" width="8" height="6" fill="rgba(255,255,255,0.3)" rx="1"/>
  
  <!-- Podium -->
  <rect x="380" y="240" width="40" height="20" fill="rgba(255,255,255,0.2)" rx="3"/>
  <rect x="385" y="235" width="30" height="5" fill="rgba(255,255,255,0.3)" rx="2"/>
  
  <!-- PL 2338/23 document -->
  <rect x="650" y="150" width="80" height="100" fill="rgba(255,255,255,0.2)" rx="5"/>
  <text x="690" y="170" text-anchor="middle" fill="white" font-family="Arial" font-size="10" font-weight="bold">PL 2338/23</text>
  <line x1="660" y1="180" x2="720" y2="180" stroke="white" stroke-width="1"/>
  <line x1="660" y1="190" x2="715" y2="190" stroke="white" stroke-width="1"/>
  <line x1="660" y1="200" x2="720" y2="200" stroke="white" stroke-width="1"/>
  <line x1="660" y1="210" x2="710" y2="210" stroke="white" stroke-width="1"/>
  <line x1="660" y1="220" x2="720" y2="220" stroke="white" stroke-width="1"/>
  <line x1="660" y1="230" x2="705" y2="230" stroke="white" stroke-width="1"/>
  
  <!-- AI symbols -->
  <circle cx="150" cy="200" r="20" fill="rgba(255,255,255,0.2)"/>
  <text x="150" y="205" text-anchor="middle" fill="white" font-family="Arial" font-size="12">🤖</text>
  
  <circle cx="680" cy="300" r="15" fill="rgba(255,255,255,0.2)"/>
  <text x="680" y="305" text-anchor="middle" fill="white" font-family="Arial" font-size="10">⚖️</text>
  
  <!-- Text */
  <text x="400" y="50" text-anchor="middle" fill="white" font-family="Arial" font-size="28" font-weight="bold">Câmara dos Deputados</text>
  <text x="400" y="350" text-anchor="middle" fill="white" font-family="Arial" font-size="16">Debates sobre PL 2338/23 - Regulamentação da IA</text>
  <text x="400" y="375" text-anchor="middle" fill="white" font-family="Arial" font-size="12">Segurança Jurídica e Inovação Tecnológica</text>
</svg>