<svg width="800" height="400" xmlns="http://www.w3.org/2000/svg">
  <defs>
    <linearGradient id="default-grad" x1="0%" y1="0%" x2="100%" y2="100%">
      <stop offset="0%" style="stop-color:#667eea;stop-opacity:1" />
      <stop offset="100%" style="stop-color:#764ba2;stop-opacity:1" />
    </linearGradient>
  </defs>
  <rect width="800" height="400" fill="url(#default-grad)"/>
  
  <!-- Central Icon -->
  <circle cx="400" cy="200" r="80" fill="rgba(255,255,255,0.1)" stroke="rgba(255,255,255,0.3)" stroke-width="2"/>
  <circle cx="400" cy="200" r="60" fill="rgba(255,255,255,0.1)" stroke="rgba(255,255,255,0.3)" stroke-width="2"/>
  
  <!-- Brain/AI Icon -->
  <path d="M 360 180 Q 360 160 380 160 Q 400 150 420 160 Q 440 160 440 180 Q 440 200 430 210 Q 420 220 400 220 Q 380 220 370 210 Q 360 200 360 180 Z" 
        fill="rgba(255,255,255,0.4)"/>
  
  <!-- Neural Network Dots -->
  <circle cx="350" cy="170" r="3" fill="white"/>
  <circle cx="370" cy="190" r="3" fill="white"/>
  <circle cx="390" cy="175" r="3" fill="white"/>
  <circle cx="410" cy="195" r="3" fill="white"/>
  <circle cx="430" cy="185" r="3" fill="white"/>
  <circle cx="450" cy="175" r="3" fill="white"/>
  
  <!-- Connection Lines -->
  <line x1="350" y1="170" x2="370" y2="190" stroke="rgba(255,255,255,0.6)" stroke-width="1"/>
  <line x1="370" y1="190" x2="390" y2="175" stroke="rgba(255,255,255,0.6)" stroke-width="1"/>
  <line x1="390" y1="175" x2="410" y2="195" stroke="rgba(255,255,255,0.6)" stroke-width="1"/>
  <line x1="410" y1="195" x2="430" y2="185" stroke="rgba(255,255,255,0.6)" stroke-width="1"/>
  <line x1="430" y1="185" x2="450" y2="175" stroke="rgba(255,255,255,0.6)" stroke-width="1"/>
  
  <!-- Medical Cross -->
  <rect x="390" y="230" width="20" height="6" fill="white" rx="1"/>
  <rect x="397" y="223" width="6" height="20" fill="white" rx="1"/>
  
  <!-- Title -->
  <text x="400" y="280" text-anchor="middle" fill="white" font-family="Arial" font-size="24" font-weight="bold">IA Médica</text>
  <text x="400" y="310" text-anchor="middle" fill="rgba(255,255,255,0.8)" font-family="Arial" font-size="16">Artigo em IA e Medicina</text>
  
  <!-- Decorative elements -->
  <circle cx="150" cy="100" r="20" fill="rgba(255,255,255,0.1)"/>
  <circle cx="650" cy="320" r="15" fill="rgba(255,255,255,0.1)"/>
  <circle cx="100" cy="300" r="12" fill="rgba(255,255,255,0.1)"/>
  <circle cx="700" cy="80" r="18" fill="rgba(255,255,255,0.1)"/>
</svg>
