<svg width="800" height="400" xmlns="http://www.w3.org/2000/svg">
  <defs>
    <linearGradient id="hospital-grad" x1="0%" y1="0%" x2="100%" y2="100%">
      <stop offset="0%" style="stop-color:#667eea;stop-opacity:1" />
      <stop offset="100%" style="stop-color:#764ba2;stop-opacity:1" />
    </linearGradient>
  </defs>
  <rect width="800" height="400" fill="url(#hospital-grad)"/>
  
  <!-- Hospital building silhouette -->
  <rect x="200" y="150" width="400" height="200" fill="rgba(255,255,255,0.1)" rx="10"/>
  <rect x="220" y="130" width="360" height="20" fill="rgba(255,255,255,0.2)" rx="5"/>
  
  <!-- Windows -->
  <rect x="240" y="170" width="20" height="30" fill="rgba(255,255,255,0.3)" rx="2"/>
  <rect x="280" y="170" width="20" height="30" fill="rgba(255,255,255,0.3)" rx="2"/>
  <rect x="320" y="170" width="20" height="30" fill="rgba(255,255,255,0.3)" rx="2"/>
  <rect x="360" y="170" width="20" height="30" fill="rgba(255,255,255,0.3)" rx="2"/>
  <rect x="400" y="170" width="20" height="30" fill="rgba(255,255,255,0.3)" rx="2"/>
  <rect x="440" y="170" width="20" height="30" fill="rgba(255,255,255,0.3)" rx="2"/>
  <rect x="480" y="170" width="20" height="30" fill="rgba(255,255,255,0.3)" rx="2"/>
  <rect x="520" y="170" width="20" height="30" fill="rgba(255,255,255,0.3)" rx="2"/>
  
  <!-- Second row windows -->
  <rect x="240" y="220" width="20" height="30" fill="rgba(255,255,255,0.3)" rx="2"/>
  <rect x="280" y="220" width="20" height="30" fill="rgba(255,255,255,0.3)" rx="2"/>
  <rect x="320" y="220" width="20" height="30" fill="rgba(255,255,255,0.3)" rx="2"/>
  <rect x="360" y="220" width="20" height="30" fill="rgba(255,255,255,0.3)" rx="2"/>
  <rect x="400" y="220" width="20" height="30" fill="rgba(255,255,255,0.3)" rx="2"/>
  <rect x="440" y="220" width="20" height="30" fill="rgba(255,255,255,0.3)" rx="2"/>
  <rect x="480" y="220" width="20" height="30" fill="rgba(255,255,255,0.3)" rx="2"/>
  <rect x="520" y="220" width="20" height="30" fill="rgba(255,255,255,0.3)" rx="2"/>
  
  <!-- Third row windows -->
  <rect x="240" y="270" width="20" height="30" fill="rgba(255,255,255,0.3)" rx="2"/>
  <rect x="280" y="270" width="20" height="30" fill="rgba(255,255,255,0.3)" rx="2"/>
  <rect x="320" y="270" width="20" height="30" fill="rgba(255,255,255,0.3)" rx="2"/>
  <rect x="360" y="270" width="20" height="30" fill="rgba(255,255,255,0.3)" rx="2"/>
  <rect x="400" y="270" width="20" height="30" fill="rgba(255,255,255,0.3)" rx="2"/>
  <rect x="440" y="270" width="20" height="30" fill="rgba(255,255,255,0.3)" rx="2"/>
  <rect x="480" y="270" width="20" height="30" fill="rgba(255,255,255,0.3)" rx="2"/>
  <rect x="520" y="270" width="20" height="30" fill="rgba(255,255,255,0.3)" rx="2"/>
  
  <!-- Hospital cross -->
  <rect x="385" y="180" width="30" height="10" fill="white" rx="2"/>
  <rect x="395" y="170" width="10" height="30" fill="white" rx="2"/>
  
  <!-- AI/Technology elements -->
  <circle cx="100" cy="100" r="30" fill="rgba(255,255,255,0.1)"/>
  <circle cx="100" cy="100" r="20" fill="rgba(255,255,255,0.1)"/>
  <circle cx="100" cy="100" r="10" fill="rgba(255,255,255,0.2)"/>
  
  <circle cx="700" cy="300" r="25" fill="rgba(255,255,255,0.1)"/>
  <circle cx="700" cy="300" r="15" fill="rgba(255,255,255,0.1)"/>
  <circle cx="700" cy="300" r="5" fill="rgba(255,255,255,0.2)"/>
  
  <!-- Text -->
  <text x="400" y="50" text-anchor="middle" fill="white" font-family="Arial" font-size="32" font-weight="bold">ITMI-Brasil</text>
  <text x="400" y="80" text-anchor="middle" fill="rgba(255,255,255,0.9)" font-family="Arial" font-size="18">Hospital Inteligente</text>
</svg>