<svg width="800" height="400" xmlns="http://www.w3.org/2000/svg">
  <defs>
    <linearGradient id="voa-grad" x1="0%" y1="0%" x2="100%" y2="100%">
      <stop offset="0%" style="stop-color:#4facfe;stop-opacity:1" />
      <stop offset="100%" style="stop-color:#00f2fe;stop-opacity:1" />
    </linearGradient>
  </defs>
  <rect width="800" height="400" fill="url(#voa-grad)"/>
  
  <!-- Document/Prontuário -->
  <rect x="250" y="80" width="300" height="240" fill="white" rx="10" opacity="0.95"/>
  
  <!-- Header do documento -->
  <rect x="270" y="100" width="260" height="30" fill="#4facfe" rx="5"/>
  <text x="400" y="120" text-anchor="middle" fill="white" font-family="Arial" font-size="16" font-weight="bold">PRONTUÁRIO ELETRÔNICO</text>
  
  <!-- Linhas do prontuário -->
  <line x1="270" y1="150" x2="530" y2="150" stroke="#e0e0e0" stroke-width="2"/>
  <line x1="270" y1="170" x2="530" y2="170" stroke="#e0e0e0" stroke-width="2"/>
  <line x1="270" y1="190" x2="450" y2="190" stroke="#e0e0e0" stroke-width="2"/>
  <line x1="270" y1="210" x2="530" y2="210" stroke="#e0e0e0" stroke-width="2"/>
  <line x1="270" y1="230" x2="480" y2="230" stroke="#e0e0e0" stroke-width="2"/>
  <line x1="270" y1="250" x2="530" y2="250" stroke="#e0e0e0" stroke-width="2"/>
  <line x1="270" y1="270" x2="420" y2="270" stroke="#e0e0e0" stroke-width="2"/>
  <line x1="270" y1="290" x2="530" y2="290" stroke="#e0e0e0" stroke-width="2"/>
  
  <!-- Ícones de IA -->
  <circle cx="150" cy="150" r="40" fill="rgba(255,255,255,0.2)"/>
  <polygon points="130,140 170,140 170,160 130,160" fill="white" opacity="0.8"/>
  <circle cx="140" cy="150" r="3" fill="#4facfe"/>
  <circle cx="150" cy="150" r="3" fill="#4facfe"/>
  <circle cx="160" cy="150" r="3" fill="#4facfe"/>
  
  <circle cx="650" cy="250" r="35" fill="rgba(255,255,255,0.2)"/>
  <polygon points="635,240 665,240 665,260 635,260" fill="white" opacity="0.8"/>
  <circle cx="645" cy="250" r="2" fill="#00f2fe"/>
  <circle cx="655" cy="250" r="2" fill="#00f2fe"/>
  
  <!-- Microfone icon -->
  <ellipse cx="100" cy="300" rx="15" ry="20" fill="white" opacity="0.8"/>
  <rect x="95" y="320" width="10" height="15" fill="white" opacity="0.8"/>
  <rect x="90" y="330" width="20" height="3" fill="white" opacity="0.8"/>
  
  <!-- Sound waves -->
  <path d="M120 290 Q130 290 130 300 Q130 310 120 310" stroke="white" stroke-width="2" fill="none" opacity="0.6"/>
  <path d="M125 285 Q140 285 140 300 Q140 315 125 315" stroke="white" stroke-width="2" fill="none" opacity="0.6"/>
  
  <!-- Text -->
  <text x="400" y="50" text-anchor="middle" fill="white" font-family="Arial" font-size="28" font-weight="bold">Voa Health</text>
  <text x="400" y="370" text-anchor="middle" fill="white" font-family="Arial" font-size="16">IA Generativa para Prontuários</text>
</svg>